<svg width="120" height="41" viewBox="0 0 120 41" fill="none" xmlns="http://www.w3.org/2000/svg">
<g clip-path="url(#clip0_24626_723)">
<path d="M110.444 0.5H9.56175C9.19372 0.5 8.8297 0.5 8.46367 0.502C8.15681 0.504 7.85196 0.51 7.54209 0.515C6.86873 0.522332 6.19691 0.580835 5.53246 0.69C4.86933 0.802207 4.22699 1.01359 3.62713 1.317C3.02716 1.62335 2.479 2.02151 2.00258 2.497C1.5245 2.97032 1.12596 3.51732 0.822276 4.117C0.517501 4.71585 0.30615 5.35757 0.195521 6.02C0.0839368 6.68171 0.0239231 7.35105 0.0160187 8.022C0.0059906 8.329 0.0059906 8.637 0.000976562 8.943V32.06C0.0059906 32.37 0.00699341 32.67 0.0160187 32.981C0.0242505 33.652 0.0845996 34.3213 0.196524 34.983C0.30644 35.6461 0.517466 36.2885 0.822276 36.888C1.12625 37.4854 1.52518 38.0297 2.00358 38.5C2.47766 38.9771 3.02548 39.3751 3.62613 39.679C4.22633 39.9831 4.86896 40.1954 5.53246 40.309C6.19697 40.4179 6.86873 40.4771 7.54209 40.486C7.85296 40.493 8.15681 40.497 8.46367 40.497C8.8307 40.499 9.19372 40.499 9.56175 40.499H110.444C110.805 40.499 111.17 40.499 111.531 40.497C111.836 40.497 112.15 40.493 112.456 40.487C113.128 40.4782 113.798 40.4187 114.461 40.309C115.127 40.1946 115.772 39.9823 116.375 39.679C116.975 39.375 117.523 38.9769 117.996 38.5C118.474 38.0273 118.874 37.4827 119.182 36.886C119.485 36.2862 119.694 35.6438 119.802 34.981C119.914 34.3192 119.976 33.65 119.988 32.979C119.992 32.669 119.992 32.369 119.992 32.058C120 31.694 120 31.333 120 30.964V10.036C120 9.67 120 9.306 119.992 8.944C119.992 8.638 119.992 8.33 119.988 8.024C119.976 7.35266 119.914 6.68314 119.802 6.021C119.693 5.3589 119.483 4.71723 119.181 4.118C118.562 2.91511 117.581 1.93588 116.375 1.318C115.772 1.01527 115.127 0.803946 114.461 0.691C113.798 0.581038 113.128 0.522197 112.456 0.515C112.15 0.51 111.836 0.504 111.531 0.502C111.17 0.5 110.804 0.5 110.444 0.5Z" fill="#A6A6A6"/>
<path d="M8.46875 39.625C8.16289 39.625 7.86506 39.621 7.56221 39.615C6.93392 39.6066 6.30713 39.5518 5.68696 39.451C5.10918 39.3516 4.54948 39.1669 4.02631 38.903C3.50774 38.6414 3.03473 38.2984 2.62539 37.887C2.21029 37.4801 1.86477 37.0082 1.60252 36.49C1.33684 35.9687 1.15287 35.4099 1.057 34.833C0.954002 34.2131 0.898353 33.5863 0.89053 32.958C0.883511 32.748 0.875488 32.045 0.875488 32.045V8.945C0.875488 8.945 0.884514 8.253 0.89053 8.05C0.898004 7.42272 0.953318 6.79691 1.05599 6.178C1.15187 5.59952 1.33584 5.03905 1.60152 4.516C1.86296 3.9983 2.20669 3.5262 2.61937 3.118C3.03148 2.70578 3.50589 2.36058 4.02531 2.095C4.54741 1.83189 5.1062 1.64851 5.68295 1.551C6.30505 1.44956 6.9339 1.39474 7.56422 1.387L8.46875 1.375H111.526L112.442 1.388C113.066 1.39522 113.689 1.44938 114.305 1.55C114.888 1.64872 115.453 1.83341 115.981 2.098C117.022 2.63288 117.868 3.47908 118.403 4.518C118.664 5.03755 118.845 5.5935 118.939 6.167C119.043 6.79093 119.102 7.4216 119.114 8.054C119.117 8.337 119.117 8.642 119.117 8.944C119.125 9.319 119.125 9.676 119.125 10.036V30.965C119.125 31.328 119.125 31.683 119.117 32.04C119.117 32.365 119.117 32.663 119.113 32.97C119.101 33.591 119.044 34.2103 118.942 34.823C118.849 35.4041 118.666 35.9673 118.401 36.493C118.136 37.0056 117.792 37.4733 117.382 37.879C116.972 38.2927 116.498 38.6377 115.978 38.901C115.451 39.1671 114.887 39.3525 114.305 39.451C113.685 39.5519 113.059 39.6064 112.431 39.614C112.137 39.621 111.829 39.625 111.531 39.625L110.444 39.627L8.46875 39.625Z" fill="black"/>
<path d="M24.8384 20.8002C24.8493 19.9658 25.0716 19.1477 25.4847 18.4219C25.8978 17.6962 26.4882 17.0864 27.201 16.6492C26.7481 16.0042 26.1507 15.4733 25.4561 15.0987C24.7616 14.7241 23.989 14.5161 23.1998 14.4912C21.5151 14.3152 19.8825 15.4962 19.0241 15.4962C18.1496 15.4962 16.8279 14.5082 15.406 14.5382C14.4857 14.5678 13.5888 14.8347 12.8027 15.3128C12.0166 15.7909 11.3681 16.4639 10.9204 17.2662C8.98097 20.6142 10.428 25.5352 12.2852 28.2422C13.2148 29.5672 14.3009 31.0472 15.7228 30.9952C17.1137 30.9372 17.6332 30.1102 19.3129 30.1102C20.9756 30.1102 21.4629 30.9952 22.913 30.9622C24.4062 30.9372 25.3458 29.6302 26.2423 28.2922C26.9107 27.3481 27.4251 26.3046 27.7666 25.2002C26.8992 24.8346 26.1589 24.2223 25.6382 23.4398C25.1174 22.6574 24.8393 21.7393 24.8384 20.8002ZM22.0987 12.7102C22.9126 11.7363 23.3137 10.4843 23.2168 9.22021C21.9733 9.35039 20.8246 9.94311 19.9998 10.8802C19.5967 11.3377 19.2878 11.8699 19.091 12.4464C18.8941 13.0229 18.8131 13.6325 18.8526 14.2402C19.4745 14.2466 20.0897 14.1122 20.652 13.8472C21.2142 13.5822 21.7089 13.1934 22.0987 12.7102Z" fill="white"/>
<path d="M42.4205 27.6401H37.6752L36.535 30.9961H34.5244L39.021 18.5781H41.1099L45.6054 30.9961H43.5607L42.4205 27.6401ZM38.1656 26.0901H41.9281L40.0729 20.6441H40.0218L38.1656 26.0901ZM55.3146 26.4701C55.3146 29.2831 53.8044 31.0901 51.525 31.0901C50.948 31.1201 50.3741 30.9875 49.869 30.7076C49.364 30.4277 48.9481 30.0116 48.669 29.5071H48.6259V33.9911H46.7607V21.9421H48.5657V23.4481H48.5988C48.8907 22.9457 49.3137 22.5317 49.8228 22.2499C50.3319 21.9682 50.908 21.8293 51.4899 21.8481C53.7944 21.8481 55.3146 23.6641 55.3146 26.4701ZM53.3993 26.4701C53.3993 24.6371 52.4486 23.4321 50.9995 23.4321C49.5756 23.4321 48.6179 24.6621 48.6179 26.4701C48.6179 28.2941 49.5756 29.5161 50.9995 29.5161C52.4486 29.5161 53.3993 28.3191 53.3993 26.4701ZM65.3076 26.4701C65.3076 29.2831 63.7974 31.0901 61.518 31.0901C60.9409 31.1201 60.3671 30.9875 59.862 30.7076C59.357 30.4277 58.9411 30.0116 58.662 29.5071H58.6189V33.9911H56.7547V21.9421H58.5587V23.4481H58.5928C58.8847 22.9457 59.3077 22.5317 59.8168 22.2499C60.3258 21.9682 60.902 21.8293 61.4839 21.8481C63.7884 21.8481 65.3076 23.6641 65.3076 26.4701ZM63.3922 26.4701C63.3922 24.6371 62.4416 23.4321 60.9925 23.4321C59.5685 23.4321 58.6109 24.6621 58.6109 26.4701C58.6109 28.2941 59.5685 29.5161 60.9925 29.5161C62.4416 29.5161 63.3922 28.3191 63.3922 26.4701ZM71.9111 27.5361C72.0495 28.7681 73.2488 29.5761 74.8894 29.5761C76.4598 29.5761 77.59 28.7681 77.59 27.6571C77.59 26.6931 76.9081 26.1171 75.2936 25.7211L73.68 25.3331C71.3936 24.7831 70.3317 23.7161 70.3317 21.9851C70.3317 19.8431 72.2039 18.3711 74.8634 18.3711C77.4947 18.3711 79.2988 19.8431 79.359 21.9851H77.4777C77.3654 20.7461 76.3385 19.9981 74.8363 19.9981C73.3341 19.9981 72.3082 20.7551 72.3082 21.8561C72.3082 22.7341 72.964 23.2511 74.5695 23.6461L75.9414 23.9821C78.4965 24.5851 79.5575 25.6081 79.5575 27.4251C79.5575 29.7481 77.7023 31.2031 74.751 31.2031C71.9893 31.2031 70.1241 29.7831 70.0038 27.5361H71.9111ZM83.5798 19.8001V21.9421H85.3066V23.4141H83.5798V28.4051C83.5798 29.1811 83.9257 29.5421 84.6849 29.5421C84.8897 29.5385 85.0942 29.5242 85.2976 29.4991V30.9621C84.9564 31.0257 84.6097 31.0545 84.2627 31.0481C82.4245 31.0481 81.7075 30.3591 81.7075 28.6031V23.4141H80.3878V21.9421H81.7075V19.8001H83.5798ZM86.3064 26.4701C86.3064 23.6211 87.9891 21.8311 90.6125 21.8311C93.2448 21.8311 94.9195 23.6211 94.9195 26.4701C94.9195 29.3261 93.2539 31.1081 90.6125 31.1081C87.9721 31.1081 86.3064 29.3261 86.3064 26.4701ZM93.0202 26.4701C93.0202 24.5161 92.1227 23.3621 90.6125 23.3621C89.1022 23.3621 88.2057 24.5241 88.2057 26.4701C88.2057 28.4321 89.1022 29.5761 90.6125 29.5761C92.1227 29.5761 93.0202 28.4321 93.0202 26.4701ZM96.4558 21.9421H98.2338V23.4831H98.2769C98.3974 23.0021 98.6801 22.5771 99.0776 22.2794C99.4751 21.9817 99.9632 21.8294 100.46 21.8481C100.675 21.8472 100.889 21.8704 101.099 21.9171V23.6551C100.828 23.5726 100.545 23.5347 100.261 23.5431C99.9907 23.5321 99.7208 23.5797 99.4702 23.6826C99.2196 23.7855 98.9944 23.9412 98.8098 24.1391C98.6253 24.337 98.4859 24.5723 98.4012 24.829C98.3165 25.0857 98.2884 25.3576 98.319 25.6261V30.9961H96.4558V21.9421ZM109.691 28.3371C109.44 29.9801 107.836 31.1081 105.782 31.1081C103.141 31.1081 101.501 29.3441 101.501 26.5131C101.501 23.6731 103.15 21.8311 105.703 21.8311C108.216 21.8311 109.794 23.5511 109.794 26.2971V26.9341H103.382V27.0461C103.353 27.3793 103.395 27.715 103.505 28.0308C103.616 28.3466 103.792 28.6353 104.023 28.8778C104.254 29.1204 104.535 29.3111 104.845 29.4373C105.156 29.5636 105.49 29.6225 105.825 29.6101C106.265 29.6511 106.707 29.5494 107.085 29.3201C107.462 29.0907 107.756 28.746 107.921 28.3371H109.691ZM103.391 25.6351H107.93C107.947 25.3355 107.901 25.0357 107.796 24.7545C107.691 24.4734 107.529 24.2168 107.32 24.001C107.111 23.7852 106.86 23.6149 106.582 23.5006C106.303 23.3864 106.005 23.3307 105.704 23.3371C105.4 23.3352 105.099 23.3934 104.818 23.5081C104.538 23.6228 104.282 23.7919 104.067 24.0055C103.852 24.2192 103.682 24.4732 103.566 24.7529C103.45 25.0326 103.39 25.3324 103.391 25.6351Z" fill="white"/>
<path d="M37.932 9.23101C38.3228 9.20306 38.7149 9.26192 39.08 9.40336C39.4452 9.5448 39.7743 9.76528 40.0437 10.0489C40.3131 10.3326 40.516 10.6723 40.6377 11.0436C40.7595 11.4148 40.7972 11.8085 40.7479 12.196C40.7479 14.102 39.715 15.198 37.932 15.198H35.771V9.23001L37.932 9.23101ZM36.7006 14.354H37.8288C38.1079 14.3705 38.3872 14.3248 38.6463 14.2201C38.9055 14.1154 39.138 13.9544 39.3269 13.7489C39.5158 13.5434 39.6565 13.2984 39.7385 13.0318C39.8206 12.7653 39.842 12.4839 39.8013 12.208C39.8391 11.9332 39.8155 11.6535 39.7322 11.3889C39.649 11.1242 39.508 10.8813 39.3195 10.6773C39.131 10.4734 38.8996 10.3135 38.6419 10.2092C38.3841 10.1049 38.1065 10.0588 37.8288 10.074H36.7006V14.354ZM41.7969 12.944C41.7696 12.6487 41.8044 12.3509 41.899 12.0697C41.9936 11.7885 42.146 11.53 42.3465 11.3109C42.5469 11.0917 42.791 10.9167 43.0631 10.7969C43.3352 10.6771 43.6294 10.6153 43.9268 10.6153C44.2243 10.6153 44.5185 10.6771 44.7906 10.7969C45.0627 10.9167 45.3068 11.0917 45.5072 11.3109C45.7076 11.53 45.86 11.7885 45.9547 12.0697C46.0493 12.3509 46.0841 12.6487 46.0568 12.944C46.0864 13.2406 46.0534 13.5401 45.9599 13.8232C45.8663 14.1063 45.7143 14.3667 45.5137 14.5877C45.3131 14.8087 45.0683 14.9853 44.7951 15.1061C44.5218 15.227 44.2262 15.2894 43.9273 15.2894C43.6284 15.2894 43.3328 15.227 43.0596 15.1061C42.7864 14.9853 42.5416 14.8087 42.3409 14.5877C42.1403 14.3667 41.9883 14.1063 41.8948 13.8232C41.8013 13.5401 41.7673 13.2406 41.7969 12.944ZM45.1402 12.944C45.1402 11.968 44.7 11.397 43.9288 11.397C43.1537 11.397 42.7184 11.968 42.7184 12.944C42.7184 13.928 43.1537 14.494 43.9288 14.494C44.701 14.494 45.1402 13.924 45.1402 12.944ZM51.7176 15.198H50.7931L49.8604 11.881H49.7902L48.8606 15.198H47.9451L46.6996 10.695H47.6041L48.4124 14.131H48.4796L49.4082 10.695H50.2626L51.1912 14.131H51.2614L52.0666 10.695H52.9581L51.7176 15.198ZM54.0051 10.695H54.8624V11.41H54.9286C55.0417 11.1531 55.2323 10.9377 55.4739 10.794C55.7154 10.6502 55.996 10.5852 56.2764 10.608C56.4962 10.5916 56.7168 10.6246 56.922 10.7047C57.1272 10.7848 57.3117 10.9099 57.4618 11.0708C57.612 11.2316 57.7239 11.4241 57.7893 11.634C57.8547 11.8438 57.872 12.0656 57.8398 12.283V15.198H56.9483V12.506C56.9483 11.782 56.6334 11.422 55.9736 11.422C55.8244 11.4151 55.6755 11.4405 55.5371 11.4963C55.3987 11.5522 55.2741 11.6372 55.1717 11.7455C55.0693 11.8539 54.9916 11.9831 54.9439 12.1242C54.8963 12.2653 54.8798 12.415 54.8955 12.563V15.198H54.0051V10.695ZM59.2598 8.93701H60.1503V15.197H59.2598V8.93701ZM61.3897 12.944C61.3616 12.6483 61.3958 12.3499 61.4901 12.0681C61.5843 11.7863 61.7365 11.5273 61.937 11.3075C62.1375 11.0878 62.3818 10.9122 62.6542 10.7921C62.9267 10.672 63.2213 10.6099 63.5192 10.6099C63.8171 10.6099 64.1117 10.672 64.3842 10.7921C64.6566 10.9122 64.9009 11.0878 65.1014 11.3075C65.3018 11.5273 65.4541 11.7863 65.5483 12.0681C65.6426 12.3499 65.6767 12.6483 65.6486 12.944C65.6783 13.2406 65.6452 13.5401 65.5517 13.8232C65.4582 14.1063 65.3062 14.3667 65.1056 14.5877C64.905 14.8087 64.6602 14.9853 64.3869 15.1061C64.1137 15.227 63.8181 15.2894 63.5192 15.2894C63.2203 15.2894 62.9247 15.227 62.6515 15.1061C62.3782 14.9853 62.1334 14.8087 61.9328 14.5877C61.7322 14.3667 61.5802 14.1063 61.4867 13.8232C61.3931 13.5401 61.3601 13.2406 61.3897 12.944ZM64.7321 12.944C64.7321 11.968 64.2919 11.397 63.5207 11.397C62.7455 11.397 62.3103 11.968 62.3103 12.944C62.3103 13.928 62.7455 14.494 63.5207 14.494C64.2929 14.494 64.7321 13.924 64.7321 12.944ZM66.5863 13.924C66.5863 13.114 67.192 12.646 68.267 12.58L69.4904 12.51V12.121C69.4904 11.646 69.1745 11.377 68.5658 11.377C68.0674 11.377 67.7235 11.559 67.6242 11.877H66.7618C66.852 11.104 67.5821 10.607 68.6069 10.607C69.7381 10.607 70.3769 11.17 70.3769 12.121V15.198H69.5195V14.565H69.4493C69.3061 14.7921 69.1051 14.9772 68.8667 15.1014C68.6283 15.2256 68.3612 15.2845 68.0925 15.272C67.9029 15.2917 67.7112 15.2716 67.5299 15.2129C67.3486 15.1542 67.1817 15.0582 67.0398 14.9312C66.898 14.8042 66.7844 14.6489 66.7065 14.4754C66.6285 14.302 66.5869 14.1141 66.5863 13.924ZM69.4894 13.54V13.163L68.3863 13.233C67.7646 13.275 67.4838 13.486 67.4838 13.883C67.4838 14.288 67.8358 14.523 68.3201 14.523C68.4621 14.5373 68.6054 14.523 68.7417 14.4809C68.878 14.4389 69.0044 14.37 69.1134 14.2783C69.2225 14.1866 69.312 14.074 69.3766 13.9472C69.4411 13.8204 69.4795 13.6819 69.4894 13.54ZM71.5482 12.944C71.5482 11.521 72.2822 10.62 73.4234 10.62C73.7055 10.6072 73.9854 10.6747 74.2304 10.8146C74.4755 10.9545 74.6755 11.161 74.8073 11.41H74.8745V8.93701H75.765V15.197H74.9116V14.487H74.8414C74.6992 14.7345 74.4918 14.9385 74.2417 15.0769C73.9916 15.2153 73.7083 15.2827 73.4224 15.272C72.2742 15.272 71.5482 14.371 71.5482 12.944ZM72.4687 12.944C72.4687 13.899 72.92 14.474 73.6751 14.474C74.4272 14.474 74.8905 13.891 74.8905 12.948C74.8905 12.01 74.4212 11.418 73.6751 11.418C72.925 11.418 72.4687 11.998 72.4687 12.944ZM79.4523 12.944C79.4242 12.6483 79.4584 12.3499 79.5526 12.0681C79.6469 11.7863 79.7991 11.5273 79.9996 11.3075C80.2001 11.0878 80.4443 10.9122 80.7168 10.7921C80.9893 10.672 81.2839 10.6099 81.5818 10.6099C81.8797 10.6099 82.1743 10.672 82.4467 10.7921C82.7192 10.9122 82.9635 11.0878 83.1639 11.3075C83.3644 11.5273 83.5166 11.7863 83.6109 12.0681C83.7051 12.3499 83.7393 12.6483 83.7112 12.944C83.7408 13.2406 83.7078 13.5401 83.6143 13.8232C83.5207 14.1063 83.3688 14.3667 83.1682 14.5877C82.9675 14.8087 82.7227 14.9853 82.4495 15.1061C82.1763 15.227 81.8807 15.2894 81.5818 15.2894C81.2829 15.2894 80.9873 15.227 80.714 15.1061C80.4408 14.9853 80.196 14.8087 79.9954 14.5877C79.7948 14.3667 79.6428 14.1063 79.5492 13.8232C79.4557 13.5401 79.4227 13.2406 79.4523 12.944ZM82.7947 12.944C82.7947 11.968 82.3554 11.397 81.5833 11.397C80.8091 11.397 80.3729 11.968 80.3729 12.944C80.3729 13.928 80.8091 14.494 81.5833 14.494C82.3554 14.494 82.7947 13.924 82.7947 12.944ZM84.9076 10.695H85.765V11.41H85.8312C85.9442 11.1531 86.1348 10.9377 86.3764 10.794C86.618 10.6502 86.8985 10.5852 87.1789 10.608C87.3987 10.5916 87.6193 10.6246 87.8245 10.7047C88.0297 10.7848 88.2142 10.9099 88.3644 11.0708C88.5145 11.2316 88.6264 11.4241 88.6919 11.634C88.7573 11.8438 88.7745 12.0656 88.7423 12.283V15.198H87.8508V12.506C87.8508 11.782 87.5359 11.422 86.8761 11.422C86.7269 11.4151 86.5781 11.4405 86.4397 11.4963C86.3013 11.5522 86.1766 11.6372 86.0742 11.7455C85.9718 11.8539 85.8941 11.9831 85.8465 12.1242C85.7988 12.2653 85.7823 12.415 85.7981 12.563V15.198H84.9066L84.9076 10.695ZM93.7774 9.57401V10.715H94.7561V11.464H93.7774V13.779C93.7774 14.251 93.972 14.458 94.4162 14.458C94.5298 14.4575 94.6433 14.4505 94.7561 14.437V15.177C94.5959 15.2058 94.4336 15.2212 94.2708 15.223C93.28 15.223 92.8859 14.875 92.8859 14.007V11.464H92.1689V10.715H92.8859V9.57401H93.7774ZM95.9736 8.93701H96.856V11.418H96.9262C97.0449 11.1587 97.2409 10.9421 97.4874 10.7979C97.734 10.6537 98.0192 10.5888 98.3041 10.612C98.5226 10.6002 98.7411 10.6366 98.9439 10.7187C99.1467 10.8008 99.3289 10.9265 99.4773 11.0869C99.6258 11.2473 99.7369 11.4383 99.8028 11.6465C99.8687 11.8546 99.8877 12.0747 99.8584 12.291V15.198H98.9669V12.51C98.9669 11.79 98.631 11.426 98.0012 11.426C97.848 11.4135 97.6939 11.4344 97.5497 11.4875C97.4054 11.5406 97.2746 11.6244 97.1662 11.7332C97.0579 11.842 96.9747 11.9731 96.9225 12.1173C96.8703 12.2615 96.8504 12.4153 96.8641 12.568V15.198H95.9736V8.93701ZM105.055 13.982C104.934 14.3934 104.672 14.7493 104.314 14.9874C103.957 15.2256 103.527 15.331 103.1 15.285C102.802 15.2931 102.506 15.2364 102.233 15.1189C101.959 15.0014 101.715 14.8259 101.516 14.6046C101.317 14.3834 101.169 14.1216 101.083 13.8376C100.996 13.5536 100.972 13.2541 101.013 12.96C100.973 12.6652 100.998 12.3653 101.084 12.0808C101.171 11.7962 101.318 11.5335 101.516 11.3105C101.713 11.0875 101.956 10.9094 102.229 10.7882C102.501 10.667 102.796 10.6055 103.094 10.608C104.351 10.608 105.109 11.464 105.109 12.878V13.188H101.92V13.238C101.906 13.4033 101.927 13.5697 101.981 13.7266C102.036 13.8834 102.122 14.0271 102.236 14.1486C102.349 14.2701 102.486 14.3666 102.639 14.4319C102.792 14.4973 102.957 14.53 103.124 14.528C103.337 14.5532 103.552 14.5147 103.743 14.4175C103.934 14.3203 104.092 14.1687 104.197 13.982H105.055ZM101.92 12.531H104.202C104.213 12.3798 104.192 12.2278 104.141 12.085C104.09 11.9421 104.01 11.8115 103.905 11.7016C103.8 11.5917 103.674 11.5048 103.533 11.4467C103.393 11.3885 103.242 11.3604 103.089 11.364C102.935 11.3621 102.782 11.391 102.64 11.449C102.497 11.507 102.367 11.5929 102.258 11.7017C102.149 11.8104 102.063 11.9399 102.005 12.0823C101.947 12.2247 101.918 12.3773 101.92 12.531Z" fill="white"/>
</g>
<defs>
<clipPath id="clip0_24626_723">
<rect width="120" height="40" fill="white" transform="translate(0 0.5)"/>
</clipPath>
</defs>
</svg>
