<svg width="196" height="74" viewBox="0 0 196 74" fill="none" xmlns="http://www.w3.org/2000/svg">
<mask id="path-1-outside-1_25433_950" maskUnits="userSpaceOnUse" x="182.25" y="56.25" width="13" height="12" fill="black">
<rect fill="white" x="182.25" y="56.25" width="13" height="12"/>
<path d="M186.125 67.25C185.833 67.25 185.557 67.1953 185.297 67.0859C185.042 66.9766 184.818 66.8255 184.625 66.6328C184.438 66.4401 184.286 66.2161 184.172 65.9609C184.062 65.7057 184.008 65.4323 184.008 65.1406V60.1641H182.57V59.25H184.008V57.3281L184.969 57.1719V59.25H187V60.1641H184.969V65.1875C184.969 65.349 184.997 65.5 185.055 65.6406C185.117 65.776 185.201 65.8958 185.305 66C185.409 66.1042 185.531 66.1875 185.672 66.25C185.812 66.3073 185.964 66.3359 186.125 66.3359H187V67.25H186.125ZM191.281 67.25H190.805L187.969 59.25H188.93L191.016 65.3125L191.047 65.7266L191.078 65.3125L193.156 59.25H194.117L191.281 67.25Z"/>
</mask>
<path d="M186.125 67.25C185.833 67.25 185.557 67.1953 185.297 67.0859C185.042 66.9766 184.818 66.8255 184.625 66.6328C184.438 66.4401 184.286 66.2161 184.172 65.9609C184.062 65.7057 184.008 65.4323 184.008 65.1406V60.1641H182.57V59.25H184.008V57.3281L184.969 57.1719V59.25H187V60.1641H184.969V65.1875C184.969 65.349 184.997 65.5 185.055 65.6406C185.117 65.776 185.201 65.8958 185.305 66C185.409 66.1042 185.531 66.1875 185.672 66.25C185.812 66.3073 185.964 66.3359 186.125 66.3359H187V67.25H186.125ZM191.281 67.25H190.805L187.969 59.25H188.93L191.016 65.3125L191.047 65.7266L191.078 65.3125L193.156 59.25H194.117L191.281 67.25Z" fill="#111111"/>
<path d="M185.297 67.0859L185.257 67.1779L185.258 67.1781L185.297 67.0859ZM184.625 66.6328L184.553 66.7026L184.554 66.7035L184.625 66.6328ZM184.172 65.9609L184.08 66.0003L184.081 66.0019L184.172 65.9609ZM184.008 60.1641H184.108V60.0641H184.008V60.1641ZM182.57 60.1641H182.47V60.2641H182.57V60.1641ZM182.57 59.25V59.15H182.47V59.25H182.57ZM184.008 59.25V59.35H184.108V59.25H184.008ZM184.008 57.3281L183.992 57.2294L183.908 57.2431V57.3281H184.008ZM184.969 57.1719H185.069V57.0543L184.953 57.0732L184.969 57.1719ZM184.969 59.25H184.869V59.35H184.969V59.25ZM187 59.25H187.1V59.15H187V59.25ZM187 60.1641V60.2641H187.1V60.1641H187ZM184.969 60.1641V60.0641H184.869V60.1641H184.969ZM185.055 65.6406L184.962 65.6784L184.964 65.6825L185.055 65.6406ZM185.672 66.25L185.631 66.3414L185.634 66.3426L185.672 66.25ZM187 66.3359H187.1V66.2359H187V66.3359ZM187 67.25V67.35H187.1V67.25H187ZM186.125 67.25V67.15C185.846 67.15 185.583 67.0978 185.336 66.9937L185.297 67.0859L185.258 67.1781C185.531 67.2928 185.82 67.35 186.125 67.35V67.25ZM185.297 67.0859L185.336 66.994C185.093 66.8896 184.879 66.7456 184.696 66.5621L184.625 66.6328L184.554 66.7035C184.756 66.9054 184.991 67.0636 185.257 67.1779L185.297 67.0859ZM184.625 66.6328L184.697 66.5631C184.518 66.3791 184.373 66.165 184.263 65.92L184.172 65.9609L184.081 66.0019C184.2 66.2673 184.357 66.5011 184.553 66.7025L184.625 66.6328ZM184.172 65.9609L184.264 65.9215C184.16 65.6794 184.108 65.4194 184.108 65.1406H184.008H183.908C183.908 65.4451 183.965 65.732 184.08 66.0003L184.172 65.9609ZM184.008 65.1406H184.108V60.1641H184.008H183.908V65.1406H184.008ZM184.008 60.1641V60.0641H182.57V60.1641V60.2641H184.008V60.1641ZM182.57 60.1641H182.67V59.25H182.57H182.47V60.1641H182.57ZM182.57 59.25V59.35H184.008V59.25V59.15H182.57V59.25ZM184.008 59.25H184.108V57.3281H184.008H183.908V59.25H184.008ZM184.008 57.3281L184.024 57.4268L184.985 57.2706L184.969 57.1719L184.953 57.0732L183.992 57.2294L184.008 57.3281ZM184.969 57.1719H184.869V59.25H184.969H185.069V57.1719H184.969ZM184.969 59.25V59.35H187V59.25V59.15H184.969V59.25ZM187 59.25H186.9V60.1641H187H187.1V59.25H187ZM187 60.1641V60.0641H184.969V60.1641V60.2641H187V60.1641ZM184.969 60.1641H184.869V65.1875H184.969H185.069V60.1641H184.969ZM184.969 65.1875H184.869C184.869 65.3611 184.9 65.525 184.962 65.6784L185.055 65.6406L185.147 65.6029C185.095 65.475 185.069 65.3369 185.069 65.1875H184.969ZM185.055 65.6406L184.964 65.6825C185.031 65.8285 185.121 65.9581 185.234 66.0707L185.305 66L185.375 65.9293C185.28 65.8336 185.203 65.7236 185.145 65.5987L185.055 65.6406ZM185.305 66L185.234 66.0707C185.347 66.1839 185.48 66.2741 185.631 66.3414L185.672 66.25L185.712 66.1586C185.583 66.1009 185.471 66.0244 185.375 65.9293L185.305 66ZM185.672 66.25L185.634 66.3426C185.787 66.4051 185.951 66.4359 186.125 66.4359V66.3359V66.2359C185.976 66.2359 185.838 66.2095 185.71 66.1574L185.672 66.25ZM186.125 66.3359V66.4359H187V66.3359V66.2359H186.125V66.3359ZM187 66.3359H186.9V67.25H187H187.1V66.3359H187ZM187 67.25V67.15H186.125V67.25V67.35H187V67.25ZM191.281 67.25V67.35H191.352L191.376 67.2834L191.281 67.25ZM190.805 67.25L190.71 67.2834L190.734 67.35H190.805V67.25ZM187.969 59.25V59.15H187.827L187.874 59.2834L187.969 59.25ZM188.93 59.25L189.024 59.2175L189.001 59.15H188.93V59.25ZM191.016 65.3125L191.115 65.305L191.114 65.2921L191.11 65.28L191.016 65.3125ZM191.047 65.7266L190.947 65.7341H191.147L191.047 65.7266ZM191.078 65.3125L190.984 65.2801L190.979 65.2922L190.978 65.305L191.078 65.3125ZM193.156 59.25V59.15H193.085L193.062 59.2176L193.156 59.25ZM194.117 59.25L194.211 59.2834L194.259 59.15H194.117V59.25ZM191.281 67.25V67.15H190.805V67.25V67.35H191.281V67.25ZM190.805 67.25L190.899 67.2166L188.063 59.2166L187.969 59.25L187.874 59.2834L190.71 67.2834L190.805 67.25ZM187.969 59.25V59.35H188.93V59.25V59.15H187.969V59.25ZM188.93 59.25L188.835 59.2825L190.921 65.345L191.016 65.3125L191.11 65.28L189.024 59.2175L188.93 59.25ZM191.016 65.3125L190.916 65.32L190.947 65.7341L191.047 65.7266L191.147 65.719L191.115 65.305L191.016 65.3125ZM191.047 65.7266L191.147 65.7341L191.178 65.32L191.078 65.3125L190.978 65.305L190.947 65.719L191.047 65.7266ZM191.078 65.3125L191.173 65.3449L193.251 59.2824L193.156 59.25L193.062 59.2176L190.984 65.2801L191.078 65.3125ZM193.156 59.25V59.35H194.117V59.25V59.15H193.156V59.25ZM194.117 59.25L194.023 59.2166L191.187 67.2166L191.281 67.25L191.376 67.2834L194.211 59.2834L194.117 59.25Z" fill="#111111" mask="url(#path-1-outside-1_25433_950)"/>
<g filter="url(#filter0_di_25433_950)">
<path d="M17.8724 71.1253C14.8104 71.1253 12.1025 70.6263 9.74873 69.6284C7.41579 68.6097 5.58277 67.0713 4.24966 65.0132C2.91655 62.955 2.25 60.3356 2.25 57.1548C2.25 54.5353 2.69784 52.3004 3.59352 50.4502C4.4892 48.5791 5.73899 47.0511 7.34289 45.8661C8.94678 44.6811 10.811 43.7768 12.9357 43.1531C15.0812 42.5294 17.3933 42.124 19.872 41.9369C22.5591 41.729 24.7149 41.4796 26.3397 41.1885C27.9852 40.8767 29.1725 40.4505 29.9016 39.91C30.6306 39.3486 30.9951 38.6106 30.9951 37.6959V37.5712C30.9951 36.3238 30.516 35.3675 29.5579 34.7022C28.5997 34.037 27.3707 33.7043 25.871 33.7043C24.2254 33.7043 22.8819 34.0681 21.8404 34.7958C20.8198 35.5026 20.2053 36.594 19.997 38.0701H4.12468C4.33298 35.1596 5.25991 32.4777 6.90546 30.0246C8.57184 27.5507 10.9985 25.5757 14.1855 24.0996C17.3724 22.6028 21.3509 21.8544 26.121 21.8544C29.5579 21.8544 32.6407 22.2597 35.3694 23.0705C38.0981 23.8605 40.4206 24.9728 42.337 26.4072C44.2533 27.8209 45.7114 29.4841 46.7112 31.3967C47.7319 33.2885 48.2422 35.3467 48.2422 37.5712V70.3768H32.1199V63.6411H31.745C30.7868 65.429 29.6204 66.8738 28.2456 67.9757C26.8917 69.0775 25.3398 69.8779 23.5901 70.3768C21.8613 70.8758 19.9553 71.1253 17.8724 71.1253ZM23.4964 60.2732C24.8087 60.2732 26.0376 60.0029 27.1833 59.4624C28.3497 58.9219 29.2975 58.1423 30.0265 57.1236C30.7556 56.1049 31.1201 54.8679 31.1201 53.4127V49.4211C30.6619 49.6082 30.1724 49.7849 29.6516 49.9512C29.1517 50.1176 28.6101 50.2735 28.0269 50.419C27.4645 50.5645 26.8604 50.6997 26.2147 50.8244C25.5898 50.9491 24.9337 51.0635 24.2463 51.1674C22.9132 51.3753 21.8196 51.7183 20.9656 52.1965C20.1324 52.6539 19.5075 53.2256 19.0909 53.9116C18.6951 54.5769 18.4972 55.3253 18.4972 56.1569C18.4972 57.4874 18.9659 58.5061 19.9033 59.2129C20.8406 59.9198 22.0383 60.2732 23.4964 60.2732ZM56.9829 70.3768V60.8969L77.9793 35.8248V35.5754H57.7328V22.478H98.3509V32.9559L79.2291 57.03V57.2795H99.1008V70.3768H56.9829ZM125.885 2.25V70.3768H108.638V2.25H125.885ZM157.794 71.25C152.586 71.25 148.129 70.2209 144.421 68.1628C140.713 66.0838 137.87 63.1941 135.891 59.4936C133.913 55.7723 132.923 51.4585 132.923 46.5522C132.923 41.6459 133.913 37.3425 135.891 33.642C137.87 29.9206 140.713 27.0309 144.421 24.9728C148.129 22.8938 152.586 21.8544 157.794 21.8544C163.001 21.8544 167.459 22.8938 171.167 24.9728C174.874 27.0309 177.718 29.9206 179.696 33.642C181.675 37.3425 182.665 41.6459 182.665 46.5522C182.665 51.4585 181.675 55.7723 179.696 59.4936C177.718 63.1941 174.874 66.0838 171.167 68.1628C167.459 70.2209 163.001 71.25 157.794 71.25ZM157.919 58.5269C159.377 58.5269 160.637 58.0383 161.7 57.0612C162.762 56.0841 163.585 54.6912 164.168 52.8826C164.751 51.0739 165.043 48.9222 165.043 46.4274C165.043 43.9119 164.751 41.7602 164.168 39.9723C163.585 38.1636 162.762 36.7708 161.7 35.7937C160.637 34.8166 159.377 34.328 157.919 34.328C156.378 34.328 155.055 34.8166 153.951 35.7937C152.847 36.7708 152.003 38.1636 151.42 39.9723C150.837 41.7602 150.545 43.9119 150.545 46.4274C150.545 48.9222 150.837 51.0739 151.42 52.8826C152.003 54.6912 152.847 56.0841 153.951 57.0612C155.055 58.0383 156.378 58.5269 157.919 58.5269Z" fill="#111111"/>
<path d="M17.8724 71.1253C14.8104 71.1253 12.1025 70.6263 9.74873 69.6284C7.41579 68.6097 5.58277 67.0713 4.24966 65.0132C2.91655 62.955 2.25 60.3356 2.25 57.1548C2.25 54.5353 2.69784 52.3004 3.59352 50.4502C4.4892 48.5791 5.73899 47.0511 7.34289 45.8661C8.94678 44.6811 10.811 43.7768 12.9357 43.1531C15.0812 42.5294 17.3933 42.124 19.872 41.9369C22.5591 41.729 24.7149 41.4796 26.3397 41.1885C27.9852 40.8767 29.1725 40.4505 29.9016 39.91C30.6306 39.3486 30.9951 38.6106 30.9951 37.6959V37.5712C30.9951 36.3238 30.516 35.3675 29.5579 34.7022C28.5997 34.037 27.3707 33.7043 25.871 33.7043C24.2254 33.7043 22.8819 34.0681 21.8404 34.7958C20.8198 35.5026 20.2053 36.594 19.997 38.0701H4.12468C4.33298 35.1596 5.25991 32.4777 6.90546 30.0246C8.57184 27.5507 10.9985 25.5757 14.1855 24.0996C17.3724 22.6028 21.3509 21.8544 26.121 21.8544C29.5579 21.8544 32.6407 22.2597 35.3694 23.0705C38.0981 23.8605 40.4206 24.9728 42.337 26.4072C44.2533 27.8209 45.7114 29.4841 46.7112 31.3967C47.7319 33.2885 48.2422 35.3467 48.2422 37.5712V70.3768H32.1199V63.6411H31.745C30.7868 65.429 29.6204 66.8738 28.2456 67.9757C26.8917 69.0775 25.3398 69.8779 23.5901 70.3768C21.8613 70.8758 19.9553 71.1253 17.8724 71.1253ZM23.4964 60.2732C24.8087 60.2732 26.0376 60.0029 27.1833 59.4624C28.3497 58.9219 29.2975 58.1423 30.0265 57.1236C30.7556 56.1049 31.1201 54.8679 31.1201 53.4127V49.4211C30.6619 49.6082 30.1724 49.7849 29.6516 49.9512C29.1517 50.1176 28.6101 50.2735 28.0269 50.419C27.4645 50.5645 26.8604 50.6997 26.2147 50.8244C25.5898 50.9491 24.9337 51.0635 24.2463 51.1674C22.9132 51.3753 21.8196 51.7183 20.9656 52.1965C20.1324 52.6539 19.5075 53.2256 19.0909 53.9116C18.6951 54.5769 18.4972 55.3253 18.4972 56.1569C18.4972 57.4874 18.9659 58.5061 19.9033 59.2129C20.8406 59.9198 22.0383 60.2732 23.4964 60.2732ZM56.9829 70.3768V60.8969L77.9793 35.8248V35.5754H57.7328V22.478H98.3509V32.9559L79.2291 57.03V57.2795H99.1008V70.3768H56.9829ZM125.885 2.25V70.3768H108.638V2.25H125.885ZM157.794 71.25C152.586 71.25 148.129 70.2209 144.421 68.1628C140.713 66.0838 137.87 63.1941 135.891 59.4936C133.913 55.7723 132.923 51.4585 132.923 46.5522C132.923 41.6459 133.913 37.3425 135.891 33.642C137.87 29.9206 140.713 27.0309 144.421 24.9728C148.129 22.8938 152.586 21.8544 157.794 21.8544C163.001 21.8544 167.459 22.8938 171.167 24.9728C174.874 27.0309 177.718 29.9206 179.696 33.642C181.675 37.3425 182.665 41.6459 182.665 46.5522C182.665 51.4585 181.675 55.7723 179.696 59.4936C177.718 63.1941 174.874 66.0838 171.167 68.1628C167.459 70.2209 163.001 71.25 157.794 71.25ZM157.919 58.5269C159.377 58.5269 160.637 58.0383 161.7 57.0612C162.762 56.0841 163.585 54.6912 164.168 52.8826C164.751 51.0739 165.043 48.9222 165.043 46.4274C165.043 43.9119 164.751 41.7602 164.168 39.9723C163.585 38.1636 162.762 36.7708 161.7 35.7937C160.637 34.8166 159.377 34.328 157.919 34.328C156.378 34.328 155.055 34.8166 153.951 35.7937C152.847 36.7708 152.003 38.1636 151.42 39.9723C150.837 41.7602 150.545 43.9119 150.545 46.4274C150.545 48.9222 150.837 51.0739 151.42 52.8826C152.003 54.6912 152.847 56.0841 153.951 57.0612C155.055 58.0383 156.378 58.5269 157.919 58.5269Z" stroke="white" stroke-width="0.5"/>
</g>
<defs>
<filter id="filter0_di_25433_950" x="0" y="0" width="184.915" height="73.5" filterUnits="userSpaceOnUse" color-interpolation-filters="sRGB">
<feFlood flood-opacity="0" result="BackgroundImageFix"/>
<feColorMatrix in="SourceAlpha" type="matrix" values="0 0 0 0 0 0 0 0 0 0 0 0 0 0 0 0 0 0 127 0" result="hardAlpha"/>
<feOffset/>
<feGaussianBlur stdDeviation="1"/>
<feComposite in2="hardAlpha" operator="out"/>
<feColorMatrix type="matrix" values="0 0 0 0 1 0 0 0 0 1 0 0 0 0 1 0 0 0 1 0"/>
<feBlend mode="normal" in2="BackgroundImageFix" result="effect1_dropShadow_25433_950"/>
<feBlend mode="normal" in="SourceGraphic" in2="effect1_dropShadow_25433_950" result="shape"/>
<feColorMatrix in="SourceAlpha" type="matrix" values="0 0 0 0 0 0 0 0 0 0 0 0 0 0 0 0 0 0 127 0" result="hardAlpha"/>
<feOffset/>
<feGaussianBlur stdDeviation="2"/>
<feComposite in2="hardAlpha" operator="arithmetic" k2="-1" k3="1"/>
<feColorMatrix type="matrix" values="0 0 0 0 1 0 0 0 0 1 0 0 0 0 1 0 0 0 1 0"/>
<feBlend mode="normal" in2="shape" result="effect2_innerShadow_25433_950"/>
</filter>
</defs>
</svg>
