<svg width="108" height="41" viewBox="0 0 108 41" fill="none" xmlns="http://www.w3.org/2000/svg">
<path d="M98.335 32.8057H100.27V33.7217H98.335V38.1582C98.335 38.2951 98.36 38.4227 98.4111 38.541L98.458 38.625C98.5077 38.7065 98.5676 38.781 98.6387 38.8477C98.7332 38.9362 98.845 39.0069 98.9736 39.0605H98.9727C99.1005 39.1093 99.2386 39.1338 99.3867 39.1338H100.27V40.0498H99.3867C99.1029 40.0498 98.8332 40.0004 98.5791 39.9004V39.8994C98.3305 39.7995 98.1111 39.6619 97.9229 39.4854V39.4844C97.7399 39.3081 97.5921 39.1032 97.4805 38.8701L97.5254 38.8486L97.4805 38.8691C97.3733 38.6345 97.3193 38.3834 97.3193 38.1162V33.7217H95.9502V32.8057H97.3193V31.0967L97.3623 31.0898L98.2773 30.9502L98.335 30.9414V32.8057ZM102.093 32.8057L102.105 32.8389L104.074 38.2061L106.038 32.8389L106.05 32.8057H107.072L107.047 32.873L104.345 40.0176L104.333 40.0498H103.81L103.798 40.0176L101.096 32.873L101.07 32.8057H102.093Z" fill="white" stroke="white" stroke-width="0.1"/>
<g filter="url(#filter0_di_24626_708)">
<path d="M10.132 37.9349C8.53813 37.9349 7.12858 37.6746 5.90336 37.154C4.68898 36.6225 3.73483 35.8198 3.0409 34.746C2.34697 33.6722 2 32.3055 2 30.646C2 29.2793 2.23312 28.1133 2.69935 27.1479C3.16559 26.1717 3.81615 25.3745 4.65103 24.7562C5.48592 24.138 6.45634 23.6662 7.56229 23.3408C8.67909 23.0154 9.88262 22.8038 11.1729 22.7062C12.5716 22.5978 13.6938 22.4676 14.5396 22.3157C15.3961 22.153 16.0142 21.9307 16.3936 21.6487C16.7731 21.3558 16.9629 20.9708 16.9629 20.4935V20.4284C16.9629 19.7776 16.7135 19.2787 16.2147 18.9316C15.716 18.5845 15.0763 18.4109 14.2956 18.4109C13.439 18.4109 12.7397 18.6008 12.1975 18.9804C11.6662 19.3492 11.3464 19.9186 11.238 20.6887H2.97584C3.08427 19.1702 3.56677 17.771 4.42334 16.4911C5.29075 15.2003 6.55392 14.1699 8.21285 13.3998C9.87178 12.6188 11.9427 12.2284 14.4257 12.2284C16.2147 12.2284 17.8195 12.4399 19.2398 12.8629C20.6602 13.2751 21.8692 13.8554 22.8667 14.6038C23.8643 15.3413 24.6232 16.2091 25.1437 17.207C25.675 18.194 25.9406 19.2678 25.9406 20.4284V37.5444H17.5484V34.0301H17.3532C16.8545 34.9629 16.2473 35.7168 15.5317 36.2916C14.8269 36.8665 14.0191 37.2841 13.1083 37.5444C12.2084 37.8048 11.2163 37.9349 10.132 37.9349ZM13.0595 32.273C13.7426 32.273 14.3823 32.132 14.9787 31.85C15.5859 31.5679 16.0792 31.1612 16.4587 30.6297C16.8382 30.0982 17.0279 29.4528 17.0279 28.6936V26.611C16.7894 26.7086 16.5346 26.8008 16.2635 26.8876C16.0033 26.9744 15.7214 27.0557 15.4178 27.1317C15.1251 27.2076 14.8106 27.2781 14.4745 27.3432C14.1492 27.4082 13.8077 27.4679 13.4499 27.5221C12.7559 27.6306 12.1867 27.8096 11.7421 28.059C11.3084 28.2977 10.9832 28.596 10.7663 28.9539C10.5603 29.301 10.4573 29.6915 10.4573 30.1253C10.4573 30.8195 10.7012 31.351 11.1892 31.7198C11.6771 32.0886 12.3005 32.273 13.0595 32.273ZM30.4905 37.5444V32.5984L41.4199 19.5173V19.3871H30.8808V12.5538H52.024V18.0205L42.0704 30.5809V30.711H52.4144V37.5444H30.4905ZM66.3567 2V37.5444H57.3789V2H66.3567ZM82.9663 38C80.2556 38 77.9353 37.4631 76.0053 36.3893C74.0753 35.3046 72.5953 33.7969 71.5652 31.8662C70.5352 29.9247 70.0201 27.674 70.0201 25.1142C70.0201 22.5544 70.5352 20.3091 71.5652 18.3784C72.5953 16.4369 74.0753 14.9292 76.0053 13.8554C77.9353 12.7707 80.2556 12.2284 82.9663 12.2284C85.677 12.2284 87.9973 12.7707 89.9273 13.8554C91.8573 14.9292 93.3373 16.4369 94.3674 18.3784C95.3974 20.3091 95.9124 22.5544 95.9124 25.1142C95.9124 27.674 95.3974 29.9247 94.3674 31.8662C93.3373 33.7969 91.8573 35.3046 89.9273 36.3893C87.9973 37.4631 85.677 38 82.9663 38ZM83.0313 31.3618C83.7903 31.3618 84.4463 31.107 84.9993 30.5972C85.5523 30.0874 85.9806 29.3606 86.2842 28.417C86.5878 27.4733 86.7396 26.3507 86.7396 25.0491C86.7396 23.7367 86.5878 22.614 86.2842 21.6812C85.9806 20.7376 85.5523 20.0108 84.9993 19.501C84.4463 18.9912 83.7903 18.7363 83.0313 18.7363C82.229 18.7363 81.5405 18.9912 80.9658 19.501C80.3912 20.0108 79.952 20.7376 79.6484 21.6812C79.3448 22.614 79.193 23.7367 79.193 25.0491C79.193 26.3507 79.3448 27.4733 79.6484 28.417C79.952 29.3606 80.3912 30.0874 80.9658 30.5972C81.5405 31.107 82.229 31.3618 83.0313 31.3618Z" fill="#111111"/>
<path d="M82.9658 12.3779C85.6564 12.3779 87.9505 12.9169 89.8535 13.9863H89.8545C91.7592 15.0461 93.2189 16.5325 94.2354 18.4482V18.4492C95.2519 20.3547 95.7627 22.575 95.7627 25.1143C95.7627 27.4947 95.3137 29.5997 94.4199 31.4326L94.2354 31.7959C93.2191 33.7007 91.7594 35.187 89.8545 36.2578C87.9513 37.3167 85.6567 37.8496 82.9658 37.8496C80.2751 37.8495 77.9812 37.3166 76.0781 36.2578H76.0771C74.2915 35.254 72.8981 33.8841 71.8936 32.1475L71.6973 31.7959C70.6805 29.8794 70.1699 27.6535 70.1699 25.1143C70.1699 22.575 70.6807 20.3547 71.6973 18.4492V18.4482C72.7137 16.5325 74.1734 15.0461 76.0781 13.9863H76.0791C77.982 12.9169 80.2754 12.378 82.9658 12.3779ZM14.4258 12.3779C16.2032 12.3779 17.7933 12.5887 19.1973 13.0068H19.1982C20.6042 13.4148 21.7958 13.988 22.7764 14.7236L22.7773 14.7246C23.7585 15.45 24.5019 16.3007 25.0107 17.2764L25.1943 17.6436C25.5919 18.506 25.791 19.4341 25.791 20.4287V37.3945H17.6982V33.8799H17.2637L17.2207 33.959C16.73 34.8767 16.1351 35.6144 15.4375 36.1748L15.4365 36.1758C14.7483 36.737 13.9592 37.1455 13.0674 37.4004H13.0664C12.182 37.6562 11.2041 37.7852 10.1318 37.7852C8.55429 37.7851 7.16526 37.527 5.96191 37.0156C4.77439 36.4955 3.844 35.7125 3.16699 34.665C2.49278 33.6217 2.15039 32.2846 2.15039 30.6455C2.15044 29.2956 2.37994 28.153 2.83398 27.2129H2.83496C3.29106 26.2579 3.92593 25.48 4.74023 24.877C5.45717 24.346 6.27737 23.9236 7.20215 23.6113L7.60449 23.4844C8.71016 23.1622 9.90366 22.9524 11.1846 22.8555C12.5855 22.7468 13.7137 22.617 14.5664 22.4639L14.5674 22.4629C15.4305 22.299 16.0762 22.0721 16.4834 21.7695L16.4854 21.7676C16.9015 21.4465 17.1133 21.0171 17.1133 20.4932V20.4287C17.1133 19.7331 16.8429 19.186 16.3008 18.8086C15.7706 18.4397 15.0984 18.2608 14.2959 18.2607C13.4176 18.2607 12.6852 18.4556 12.1113 18.8574C11.5703 19.2332 11.2432 19.8004 11.1133 20.5391H3.13867C3.26682 19.1088 3.73502 17.7874 4.54688 16.5742L4.54785 16.5752C5.39748 15.3109 6.63786 14.2968 8.27637 13.5361V13.5352C9.90955 12.7663 11.9575 12.3779 14.4258 12.3779ZM66.207 2.15039V37.3945H57.5293V2.15039H66.207ZM51.874 12.7041V17.9678L41.9531 30.4873L41.9209 30.5283V30.8613H52.2646V37.3945H30.6406V32.6514L41.5352 19.6133L41.5703 19.5713V19.2373H31.0312V12.7041H51.874ZM16.9707 26.4727C16.7363 26.5686 16.4853 26.6595 16.2178 26.7451H16.2158C15.9599 26.8305 15.682 26.9113 15.3818 26.9863H15.3799C15.0906 27.0613 14.7796 27.1318 14.4463 27.1963H14.4453C14.1226 27.2608 13.7833 27.3201 13.4277 27.374H13.4268C12.8095 27.4705 12.2822 27.6226 11.8486 27.834L11.6699 27.9277C11.2174 28.1767 10.8705 28.4917 10.6377 28.876V28.877C10.417 29.2489 10.3077 29.6664 10.3076 30.125C10.3076 30.859 10.5678 31.4386 11.0986 31.8398C11.6183 32.2326 12.276 32.4229 13.0596 32.4229C13.7635 32.4228 14.4243 32.2767 15.041 31.9854L15.042 31.9863C15.6721 31.6937 16.1861 31.2699 16.5811 30.7168C16.9815 30.1559 17.1777 29.4785 17.1777 28.6934V26.3877L16.9707 26.4727ZM83.0312 18.5859C82.1941 18.586 81.4696 18.8534 80.8662 19.3887C80.2665 19.9207 79.8153 20.6731 79.5059 21.6348C79.1961 22.5866 79.043 23.7257 79.043 25.0488C79.043 26.3614 79.1963 27.5006 79.5059 28.4629C79.8153 29.4247 80.2665 30.1769 80.8662 30.709C81.4696 31.2443 82.194 31.5117 83.0312 31.5117C83.8275 31.5117 84.5196 31.2426 85.1006 30.707C85.6777 30.175 86.1177 29.4236 86.4268 28.4629C86.7364 27.5006 86.8896 26.3614 86.8896 25.0488C86.8896 23.7257 86.7365 22.5866 86.4268 21.6348C86.1177 20.6743 85.6776 19.9226 85.1006 19.3906C84.5197 18.8552 83.8274 18.5859 83.0312 18.5859Z" stroke="white" stroke-width="0.3"/>
</g>
<defs>
<filter id="filter0_di_24626_708" x="0" y="0" width="97.9126" height="40" filterUnits="userSpaceOnUse" color-interpolation-filters="sRGB">
<feFlood flood-opacity="0" result="BackgroundImageFix"/>
<feColorMatrix in="SourceAlpha" type="matrix" values="0 0 0 0 0 0 0 0 0 0 0 0 0 0 0 0 0 0 127 0" result="hardAlpha"/>
<feOffset/>
<feGaussianBlur stdDeviation="1"/>
<feComposite in2="hardAlpha" operator="out"/>
<feColorMatrix type="matrix" values="0 0 0 0 1 0 0 0 0 1 0 0 0 0 1 0 0 0 1 0"/>
<feBlend mode="normal" in2="BackgroundImageFix" result="effect1_dropShadow_24626_708"/>
<feBlend mode="normal" in="SourceGraphic" in2="effect1_dropShadow_24626_708" result="shape"/>
<feColorMatrix in="SourceAlpha" type="matrix" values="0 0 0 0 0 0 0 0 0 0 0 0 0 0 0 0 0 0 127 0" result="hardAlpha"/>
<feOffset/>
<feGaussianBlur stdDeviation="1"/>
<feComposite in2="hardAlpha" operator="arithmetic" k2="-1" k3="1"/>
<feColorMatrix type="matrix" values="0 0 0 0 1 0 0 0 0 1 0 0 0 0 1 0 0 0 1 0"/>
<feBlend mode="normal" in2="shape" result="effect2_innerShadow_24626_708"/>
</filter>
</defs>
</svg>
