<svg width="116" height="44" viewBox="0 0 116 44" fill="none" xmlns="http://www.w3.org/2000/svg">
<path d="M107.127 36.3936H108.887V37.1279H107.127V40.5674C107.127 40.6711 107.15 40.7675 107.195 40.8574L107.284 40.9824C107.318 41.0216 107.357 41.0584 107.399 41.0928C107.484 41.1609 107.585 41.2161 107.701 41.2578C107.817 41.2958 107.943 41.3154 108.078 41.3154H108.887V42.0498H108.078C107.821 42.0498 107.576 42.0113 107.346 41.9336H107.345C107.175 41.8753 107.021 41.8 106.882 41.708L106.748 41.6104C106.581 41.4727 106.446 41.3118 106.344 41.1289L106.343 41.1279C106.244 40.9435 106.195 40.7457 106.195 40.5352V37.1279H104.95V36.3936H106.195V35.0645L106.238 35.0586L107.07 34.9502L107.127 34.9434V36.3936ZM110.54 36.3936L110.554 36.4238L112.341 40.5898L114.122 36.4238L114.135 36.3936H115.077L115.046 36.4639L112.59 42.0205L112.576 42.0498H112.099L112.086 42.0205L109.63 36.4639L109.599 36.3936H110.54Z" fill="white" stroke="white" stroke-width="0.1"/>
<g filter="url(#filter0_di_24626_756)">
<path d="M11.0356 41.9277C9.26464 41.9277 7.69847 41.6384 6.3371 41.06C4.98778 40.4694 3.9276 39.5776 3.15656 38.3844C2.38552 37.1913 2 35.6728 2 33.8289C2 32.3103 2.25902 31.0148 2.77706 29.9421C3.29511 28.8575 4.01796 27.9717 4.94561 27.2847C5.87327 26.5978 6.95152 26.0735 8.18037 25.7119C9.42126 25.3504 10.7585 25.1154 12.1922 25.0069C13.7463 24.8864 14.9932 24.7418 15.9329 24.573C16.8847 24.3923 17.5714 24.1452 17.9931 23.8319C18.4147 23.5065 18.6255 23.0786 18.6255 22.5483V22.476C18.6255 21.7529 18.3485 21.1985 17.7943 20.8129C17.2401 20.4272 16.5293 20.2344 15.6619 20.2344C14.7101 20.2344 13.933 20.4453 13.3307 20.8671C12.7403 21.2769 12.3849 21.9096 12.2645 22.7653H3.08427C3.20475 21.078 3.74086 19.5233 4.69262 18.1012C5.65642 16.667 7.05995 15.5221 8.90322 14.6664C10.7465 13.7987 13.0476 13.3648 15.8064 13.3648C17.7943 13.3648 19.5773 13.5999 21.1555 14.0699C22.7337 14.5278 24.077 15.1726 25.1854 16.0042C26.2938 16.8237 27.1371 17.7879 27.7154 18.8966C28.3057 19.9934 28.6009 21.1865 28.6009 22.476V41.4938H19.2761V37.589H19.0593C18.5051 38.6255 17.8304 39.4631 17.0353 40.1018C16.2522 40.7406 15.3547 41.2046 14.3427 41.4938C13.3427 41.7831 12.2404 41.9277 11.0356 41.9277ZM14.2884 35.6366C15.0474 35.6366 15.7582 35.48 16.4209 35.1666C17.0955 34.8533 17.6437 34.4013 18.0653 33.8108C18.487 33.2202 18.6978 32.5032 18.6978 31.6595V29.3456C18.4328 29.454 18.1497 29.5565 17.8485 29.6529C17.5593 29.7493 17.2461 29.8397 16.9088 29.9241C16.5835 30.0084 16.2341 30.0868 15.8606 30.1591C15.4992 30.2314 15.1197 30.2977 14.7222 30.3579C13.9511 30.4784 13.3186 30.6773 12.8247 30.9545C12.3428 31.2196 11.9814 31.5511 11.7404 31.9488C11.5115 32.3344 11.397 32.7683 11.397 33.2504C11.397 34.0217 11.6681 34.6122 12.2103 35.022C12.7524 35.4317 13.4451 35.6366 14.2884 35.6366ZM33.6563 41.4938V35.9982L45.8002 21.4637V21.3191H34.09V13.7264H57.5826V19.8005L46.523 33.7565V33.9012H58.0163V41.4938H33.6563ZM73.5079 2V41.4938H63.5326V2H73.5079ZM91.9632 42C88.9513 42 86.3731 41.4034 84.2287 40.2103C82.0842 39.0051 80.4397 37.3299 79.2952 35.1847C78.1507 33.0274 77.5785 30.5267 77.5785 27.6824C77.5785 24.8382 78.1507 22.3435 79.2952 20.1982C80.4397 18.041 82.0842 16.3657 84.2287 15.1726C86.3731 13.9674 88.9513 13.3648 91.9632 13.3648C94.9751 13.3648 97.5532 13.9674 99.6977 15.1726C101.842 16.3657 103.487 18.041 104.631 20.1982C105.776 22.3435 106.348 24.8382 106.348 27.6824C106.348 30.5267 105.776 33.0274 104.631 35.1847C103.487 37.3299 101.842 39.0051 99.6977 40.2103C97.5532 41.4034 94.9751 42 91.9632 42ZM92.0355 34.6243C92.8788 34.6243 93.6077 34.3411 94.2221 33.7746C94.8365 33.2082 95.3124 32.4007 95.6497 31.3522C95.987 30.3037 96.1557 29.0563 96.1557 27.6101C96.1557 26.1518 95.987 24.9045 95.6497 23.868C95.3124 22.8195 94.8365 22.012 94.2221 21.4456C93.6077 20.8792 92.8788 20.5959 92.0355 20.5959C91.1439 20.5959 90.3789 20.8792 89.7404 21.4456C89.1019 22.012 88.614 22.8195 88.2766 23.868C87.9393 24.9045 87.7706 26.1518 87.7706 27.6101C87.7706 29.0563 87.9393 30.3037 88.2766 31.3522C88.614 32.4007 89.1019 33.2082 89.7404 33.7746C90.3789 34.3411 91.1439 34.6243 92.0355 34.6243Z" fill="#111111"/>
<path d="M91.9629 13.5146C94.9548 13.5146 97.5065 14.1137 99.624 15.3037H99.625C101.612 16.4091 103.163 17.9318 104.281 19.874L104.499 20.2686C105.63 22.3886 106.198 24.8588 106.198 27.6826C106.198 30.33 105.699 32.6716 104.704 34.7109L104.499 35.1143C103.368 37.2339 101.744 38.8878 99.624 40.0791C97.5065 41.2571 94.9548 41.8496 91.9629 41.8496C89.158 41.8496 86.7402 41.3288 84.7041 40.293L84.3018 40.0791C82.3146 38.9622 80.7634 37.4384 79.6455 35.5059L79.4277 35.1143C78.2965 32.982 77.7285 30.5063 77.7285 27.6826C77.7285 25.0355 78.2275 22.6993 79.2217 20.6709L79.4277 20.2686C80.4879 18.2702 81.9813 16.6914 83.9102 15.5303L84.3018 15.3037C86.4192 14.1137 88.9712 13.5147 91.9629 13.5146ZM15.8066 13.5146C17.7827 13.5147 19.5506 13.7488 21.1123 14.2139H21.1133C22.6773 14.6677 24.0042 15.3051 25.0957 16.124L25.0967 16.125C26.1884 16.9323 27.0154 17.8795 27.582 18.9658L27.583 18.9678C28.1611 20.0417 28.4511 21.2101 28.4512 22.4756V41.3438H19.4258V37.4395H18.9697L18.9268 37.5186C18.3807 38.5397 17.7185 39.3611 16.9414 39.9854H16.9404C16.1739 40.6106 15.2949 41.0657 14.3018 41.3496H14.3008C13.3164 41.6343 12.2279 41.7773 11.0352 41.7773C9.28063 41.7773 7.73492 41.491 6.39551 40.9219C5.07292 40.3427 4.03636 39.4697 3.28223 38.3027C2.5311 37.1402 2.15042 35.6523 2.15039 33.8291C2.15039 32.3273 2.40633 31.0552 2.91211 30.0078V30.0068C3.42004 28.9433 4.12802 28.077 5.03516 27.4053C5.83311 26.8144 6.74566 26.3445 7.77441 25.9971L8.22266 25.8555C9.45229 25.4972 10.779 25.264 12.2031 25.1562H12.2041C13.7601 25.0356 15.0124 24.8906 15.959 24.7207H15.9609C16.9192 24.5387 17.6336 24.2861 18.083 23.9521L18.085 23.9502C18.543 23.5966 18.7754 23.1247 18.7754 22.5479V22.4756C18.7753 21.7077 18.4775 21.1053 17.8799 20.6895C17.2943 20.282 16.5513 20.084 15.6621 20.084C14.81 20.084 14.0834 20.2499 13.4902 20.5889L13.2451 20.7441C12.6448 21.1609 12.2817 21.7912 12.1396 22.6152H3.24805C3.38841 21.0163 3.91029 19.54 4.81738 18.1846C5.76339 16.777 7.1441 15.6489 8.9668 14.8027V14.8018C10.7843 13.9461 13.0624 13.5146 15.8066 13.5146ZM73.3584 2.15039V41.3438H63.6826V2.15039H73.3584ZM57.4326 13.876V19.7471L46.4053 33.6631L46.373 33.7041V34.0508H57.8662V41.3438H33.8066V36.0518L45.915 21.5596L45.9502 21.5186V21.1689H34.2402V13.876H57.4326ZM18.6406 29.207C18.3797 29.3138 18.1004 29.4145 17.8027 29.5098L17.8008 29.5107C17.5158 29.6058 17.2061 29.6948 16.8721 29.7783L16.8711 29.7793C16.5492 29.8628 16.2028 29.9399 15.832 30.0117H15.8311C15.6517 30.0476 15.4678 30.0823 15.2793 30.1152L14.6992 30.21C13.9167 30.3323 13.2652 30.5347 12.751 30.8232C12.2508 31.0986 11.869 31.4474 11.6123 31.8711L11.6113 31.8721C11.3677 32.2825 11.2471 32.7432 11.2471 33.25C11.2471 34.0611 11.535 34.6994 12.1201 35.1416C12.6939 35.5752 13.4204 35.7871 14.2881 35.7871C15.068 35.7871 15.8003 35.6246 16.4834 35.3018L16.4844 35.3027C17.1818 34.9788 17.7504 34.5096 18.1875 33.8975C18.63 33.2776 18.8477 32.5286 18.8477 31.6592V29.1221L18.6406 29.207ZM92.0352 20.4463C91.1089 20.4464 90.3078 20.7412 89.6406 21.333C88.9771 21.9216 88.477 22.7548 88.1338 23.8213C87.7903 24.8768 87.6211 26.1413 87.6211 27.6104C87.6211 29.0675 87.7905 30.3313 88.1338 31.3984C88.477 32.465 88.9771 33.2981 89.6406 33.8867C90.3078 34.4786 91.1089 34.7743 92.0352 34.7744C92.9158 34.7744 93.6818 34.477 94.3242 33.8848C94.9626 33.2961 95.4502 32.4638 95.793 31.3984C96.1363 30.3313 96.3056 29.0675 96.3057 27.6104C96.3057 26.1417 96.1363 24.8777 95.793 23.8223C95.4502 22.7568 94.9627 21.9236 94.3242 21.335C93.6818 20.7427 92.9158 20.4463 92.0352 20.4463Z" stroke="white" stroke-width="0.3"/>
</g>
<defs>
<filter id="filter0_di_24626_756" x="0" y="0" width="108.348" height="44" filterUnits="userSpaceOnUse" color-interpolation-filters="sRGB">
<feFlood flood-opacity="0" result="BackgroundImageFix"/>
<feColorMatrix in="SourceAlpha" type="matrix" values="0 0 0 0 0 0 0 0 0 0 0 0 0 0 0 0 0 0 127 0" result="hardAlpha"/>
<feOffset/>
<feGaussianBlur stdDeviation="1"/>
<feComposite in2="hardAlpha" operator="out"/>
<feColorMatrix type="matrix" values="0 0 0 0 1 0 0 0 0 1 0 0 0 0 1 0 0 0 1 0"/>
<feBlend mode="normal" in2="BackgroundImageFix" result="effect1_dropShadow_24626_756"/>
<feBlend mode="normal" in="SourceGraphic" in2="effect1_dropShadow_24626_756" result="shape"/>
<feColorMatrix in="SourceAlpha" type="matrix" values="0 0 0 0 0 0 0 0 0 0 0 0 0 0 0 0 0 0 127 0" result="hardAlpha"/>
<feOffset/>
<feGaussianBlur stdDeviation="1"/>
<feComposite in2="hardAlpha" operator="arithmetic" k2="-1" k3="1"/>
<feColorMatrix type="matrix" values="0 0 0 0 1 0 0 0 0 1 0 0 0 0 1 0 0 0 1 0"/>
<feBlend mode="normal" in2="shape" result="effect2_innerShadow_24626_756"/>
</filter>
</defs>
</svg>
